# xmcd
#
# Track frame offsets:
#	150
#	11520
#	22260
#	38055
#	54825
#	71205
#	88500
#	98535
#	112792
#	129112
#	145949
#	160161
#	176293
#	187025
#	195410
#	206712
#	222454
#	237206
#	254103
#	272165
#	283872
#	298692
#
# Disc length: 4148 seconds
#
# Revision: 2
# Processed by: cddbd v1.5.2PL0 Copyright (c) Steve Scherf et al.
# Submitted via: EasyCDDAExtractor 2011.0.0.0
#
DISCID=43103216
DTITLE=Brett Baker - Stealin' The Covers
DYEAR=1900
DGENRE=Country
TTITLE0=Chattahoochee
TTITLE1=Sold
TTITLE2=God Love Her
TTITLE3=Don't Take Her She's All I Got
TTITLE4=She Never Cried In Front Of Me
TTITLE5=Chicken Fried
TTITLE6=Walk On By
TTITLE7=Watermelon Crawl
TTITLE8=Good Directions
TTITLE9=Country Comes To Town
TTITLE10=I'm From The Country
TTITLE11=Lay You Down
TTITLE12=You Ain't Much Fun
TTITLE13=All Shook Up
TTITLE14=Susan When She Tried
TTITLE15=A Little Too Late
TTITLE16=There Goes My Heart
TTITLE17=Don't Make Me
TTITLE18=It's Five O'Clock Somewhere
TTITLE19=Pocket Full Of Rainbows
TTITLE20=I like It I Love It
TTITLE21=G.I. Blues
EXTD=
EXTT0=
EXTT1=
EXTT2=
EXTT3=
EXTT4=
EXTT5=
EXTT6=
EXTT7=
EXTT8=
EXTT9=
EXTT10=
EXTT11=
EXTT12=
EXTT13=
EXTT14=
EXTT15=
EXTT16=
EXTT17=
EXTT18=
EXTT19=
EXTT20=
EXTT21=
PLAYORDER=
